<svg width="480" height="480" viewBox="0 0 480 480" fill="none" xmlns="http://www.w3.org/2000/svg">
<g clip-path="url(#clip0_226_40)">
<path d="M240 75C207.366 75 175.465 84.6771 148.331 102.808C121.197 120.938 100.048 146.707 87.56 176.857C75.0715 207.007 71.8039 240.183 78.1705 272.19C84.5371 304.197 100.252 333.597 123.327 356.673C146.403 379.748 175.803 395.463 207.81 401.83C239.817 408.196 272.993 404.929 303.143 392.44C333.293 379.952 359.062 358.803 377.193 331.669C395.323 304.535 405 272.634 405 240C405 196.239 387.616 154.271 356.673 123.327C325.729 92.3839 283.761 75 240 75Z" stroke="black" stroke-width="32" stroke-miterlimit="10"/>
<path d="M187.5 189.647C187.5 189.647 188.288 173.24 205.847 159.112C216.263 150.722 228.75 148.294 240 148.125C250.247 147.994 259.397 149.69 264.872 152.297C274.247 156.759 292.5 167.653 292.5 190.819C292.5 215.194 276.563 226.265 258.403 238.444C240.244 250.622 235.312 263.84 235.312 277.5" stroke="black" stroke-width="28" stroke-miterlimit="10" stroke-linecap="round"/>
<path d="M234.375 345C244.73 345 253.125 336.605 253.125 326.25C253.125 315.895 244.73 307.5 234.375 307.5C224.02 307.5 215.625 315.895 215.625 326.25C215.625 336.605 224.02 345 234.375 345Z" fill="black"/>
</g>
<defs>
<clipPath id="clip0_226_40">
<rect width="480" height="480" fill="white"/>
</clipPath>
</defs>
</svg>
