<?xml version="1.0" standalone="no"?>
<!DOCTYPE svg PUBLIC "-//W3C//DTD SVG 20010904//EN"
 "http://www.w3.org/TR/2001/REC-SVG-20010904/DTD/svg10.dtd">
<svg version="1.0" xmlns="http://www.w3.org/2000/svg"
 width="480.000000pt" height="480.000000pt" viewBox="0 0 480.000000 480.000000"
 preserveAspectRatio="xMidYMid meet">
<metadata>
Created by potrace 1.14, written by Peter Selinger 2001-2017
</metadata>
<g transform="translate(0.000000,480.000000) scale(0.100000,-0.100000)"
fill="#000000" stroke="none">
<path d="M2260 4141 c-8 -5 -46 -16 -85 -24 -86 -18 -131 -36 -212 -87 -34
-22 -66 -40 -70 -40 -22 0 -218 -205 -239 -251 -7 -13 -28 -58 -47 -99 -50
-105 -57 -126 -63 -189 -2 -31 -9 -72 -14 -91 -13 -45 -13 -145 0 -184 5 -17
16 -68 24 -113 15 -77 51 -177 76 -205 22 -27 90 -129 90 -137 0 -15 127 -126
206 -180 83 -57 172 -98 226 -105 18 -3 66 -12 106 -20 92 -20 150 -20 287 -1
77 11 128 25 175 46 36 17 89 42 118 56 50 24 169 123 239 200 18 19 44 58 59
87 14 28 32 58 39 66 25 30 44 79 60 151 9 41 20 83 25 94 16 38 19 100 10
225 -7 103 -14 140 -40 210 -18 47 -37 98 -43 114 -11 30 -90 141 -148 209
-32 38 -191 162 -239 187 -13 7 -38 16 -55 21 -16 4 -63 19 -104 34 -63 22
-95 27 -220 31 -83 3 -152 1 -161 -5z"/>
<path d="M2225 2139 c-120 -11 -238 -29 -250 -38 -5 -4 -48 -16 -95 -26 -103
-21 -221 -54 -235 -65 -13 -10 -138 -60 -163 -65 -24 -4 -135 -63 -222 -116
-36 -21 -81 -47 -100 -56 -46 -22 -259 -236 -293 -293 -26 -45 -56 -127 -78
-210 -7 -28 -12 -151 -13 -332 l-2 -288 1626 0 1626 0 -1 288 c-2 228 -5 299
-18 347 -24 89 -50 155 -82 205 -35 56 -240 260 -280 280 -16 8 -75 42 -130
75 -103 63 -122 72 -265 125 -47 18 -89 36 -95 40 -14 11 -133 44 -235 66 -47
9 -89 20 -95 24 -16 11 -71 20 -230 35 -163 16 -232 17 -370 4z"/>
</g>
</svg>
